<svg width="106" height="31" viewBox="0 0 106 31" fill="none" xmlns="http://www.w3.org/2000/svg">
<path d="M4 24.0182V23.7065H4.03085C4.77135 23.7065 5.36785 23.4779 5.82038 23.0208C6.2729 22.5636 6.49916 21.961 6.49916 21.213V10.9896C6.49916 10.2 6.33461 9.58701 6.0055 9.15065C5.69696 8.71428 5.02846 8.4961 4 8.4961V8.18442H7.05453C7.89787 8.18442 8.5458 8.14286 8.99832 8.05974C9.47142 7.97662 9.82109 7.87273 10.0474 7.74805C10.2736 7.6026 10.4382 7.45714 10.541 7.31169H10.8496L10.8804 11.3636C11.4152 10.2831 12.2277 9.41039 13.3179 8.74545C14.408 8.08052 15.5599 7.74805 16.7735 7.74805C17.9459 7.74805 18.923 8.08052 19.7046 8.74545C20.4862 9.41039 20.9902 10.3039 21.2164 11.426C21.7924 10.3039 22.6152 9.41039 23.6848 8.74545C24.7749 8.08052 25.9474 7.74805 27.2021 7.74805C28.5802 7.74805 29.6807 8.20519 30.5035 9.11948C31.3468 10.0338 31.7685 11.239 31.7685 12.7351V21.213C31.7685 21.961 31.9947 22.5636 32.4472 23.0208C32.8998 23.4779 33.4963 23.7065 34.2368 23.7065H34.2676V24.0182H24.8572V23.7065H24.8881C25.6285 23.7065 26.2251 23.4779 26.6776 23.0208C27.1301 22.5636 27.3564 21.961 27.3564 21.213V12.4234C27.3564 11.3844 27.1507 10.5532 26.7393 9.92987C26.3279 9.30649 25.7931 8.9948 25.1349 8.9948C24.4972 8.9948 23.8287 9.28571 23.1294 9.86753C22.43 10.4286 21.8232 11.1662 21.309 12.0805C21.3296 12.1221 21.3399 12.174 21.3399 12.2364C21.3399 12.2987 21.3399 12.3506 21.3399 12.3922V21.213C21.3399 21.961 21.5661 22.5636 22.0186 23.0208C22.4712 23.4779 23.0677 23.7065 23.8082 23.7065H23.839V24.0182H14.4286V23.7065H14.4595C15.1999 23.7065 15.7965 23.4779 16.249 23.0208C16.7015 22.5636 16.9278 21.961 16.9278 21.213V12.4234C16.9278 11.3844 16.7221 10.5532 16.3107 9.92987C15.9199 9.30649 15.3954 8.9948 14.7371 8.9948C14.0995 8.9948 13.431 9.27532 12.7316 9.83636C12.0529 10.3766 11.4563 11.1143 10.9421 12.0494V21.213C10.9421 21.961 11.1684 22.5636 11.6209 23.0208C12.0734 23.4779 12.6699 23.7065 13.4104 23.7065H13.4413V24.0182H4Z" fill="#FAF9F6"/>
<path d="M45.6602 24.8909L45.6293 20.8701C45.0945 21.9299 44.282 22.7922 43.1919 23.4571C42.1017 24.1221 40.9498 24.4545 39.7362 24.4545C38.3581 24.4545 37.2473 23.9974 36.404 23.0831C35.5812 22.1688 35.1699 20.9636 35.1699 19.4675V10.9896C35.1699 10.2 35.0156 9.58701 34.707 9.15065C34.3985 8.71428 33.7197 8.4961 32.6707 8.4961V8.18442H35.7869C36.836 8.18442 37.6382 8.07013 38.1935 7.84156C38.7078 7.61299 39.0677 7.33247 39.2734 7H39.582V19.7792C39.582 20.8182 39.7876 21.6494 40.199 22.2727C40.6104 22.8961 41.1452 23.2078 41.8034 23.2078C42.4411 23.2078 43.0993 22.9377 43.7781 22.3974C44.4569 21.8364 45.0534 21.0883 45.5676 20.1532V10.9896C45.5676 10.2416 45.3825 9.63896 45.0122 9.18182C44.642 8.72467 44.0043 8.4961 43.0993 8.4961V8.18442H46.2155C47.2646 8.18442 48.0668 8.07013 48.6221 7.84156C49.1569 7.61299 49.5272 7.33247 49.7329 7H50.0414L50.0106 21.213C50.0106 21.961 50.2368 22.574 50.6893 23.0519C51.1419 23.5091 51.7384 23.7377 52.4789 23.7377V24.0182H49.4243C48.8895 24.0182 48.4164 24.0286 48.0051 24.0494C47.5937 24.0909 47.2543 24.1325 46.9869 24.174C46.4315 24.2987 46.0407 24.5377 45.8144 24.8909H45.6602Z" fill="#FAF9F6"/>
<path d="M52.1489 24.0182V23.7065H52.1797C52.9202 23.7065 53.5167 23.4779 53.9692 23.0208C54.4218 22.5636 54.648 21.961 54.648 21.213V10.9896C54.648 10.2 54.4835 9.58701 54.1544 9.15065C53.8458 8.71428 53.1773 8.4961 52.1489 8.4961V8.18442H55.2034C56.2524 8.18442 57.0546 8.07013 57.61 7.84156C58.1242 7.61299 58.4842 7.33247 58.6899 7H58.9984L59.0293 11.3636C59.5641 10.2831 60.3766 9.41039 61.4667 8.74545C62.5569 8.08052 63.7088 7.74805 64.9224 7.74805C66.3005 7.74805 67.401 8.20519 68.2237 9.11948C69.0671 10.0338 69.4887 11.239 69.4887 12.7351V21.213C69.4887 21.961 69.715 22.5636 70.1675 23.0208C70.62 23.4779 71.2165 23.7065 71.957 23.7065H71.9879V24.0182H62.5775V23.7065H62.6083C63.3488 23.7065 63.9453 23.4779 64.3978 23.0208C64.8504 22.5636 65.0766 21.961 65.0766 21.213V12.4234C65.0766 11.3844 64.8709 10.5532 64.4596 9.92987C64.0687 9.30649 63.5442 8.9948 62.886 8.9948C62.2484 8.9948 61.5799 9.27532 60.8805 9.83636C60.2017 10.3766 59.6052 11.1143 59.091 12.0494V21.213C59.091 21.961 59.3172 22.5636 59.7698 23.0208C60.2223 23.4779 60.8188 23.7065 61.5593 23.7065H61.5901V24.0182H52.1489Z" fill="#FAF9F6"/>
<path d="M76.2486 24.4545C74.9939 24.4545 73.986 24.1117 73.2249 23.426C72.4639 22.7403 72.0833 21.8364 72.0833 20.7143C72.0833 20.2364 72.1656 19.7896 72.3302 19.374C72.4947 18.9377 72.8033 18.5117 73.2558 18.0961C73.7289 17.6805 74.3768 17.2545 75.1996 16.8182C76.0224 16.361 77.1125 15.8831 78.4701 15.3844L81.3395 14.3247V11.987C81.3395 10.8026 81.1544 9.86753 80.7841 9.18182C80.4139 8.47532 79.8996 8.12208 79.2414 8.12208C78.4598 8.14286 77.7913 8.66234 77.2359 9.68052C76.7011 10.6987 76.3412 12.1117 76.156 13.9195L72.8238 11.987C73.1735 11.1351 73.7083 10.387 74.4282 9.74286C75.1482 9.0987 75.9709 8.6 76.8965 8.24675C77.8427 7.89351 78.83 7.71688 79.8585 7.71688C81.6069 7.71688 83.0262 8.21558 84.1163 9.21299C85.2271 10.1896 85.7825 11.5299 85.7825 13.2338V20.7455C85.7825 21.9506 86.1835 22.5532 86.9857 22.5532C87.4588 22.5532 87.9217 22.2935 88.3742 21.774L88.621 21.9922C88.0862 22.7195 87.4383 23.3117 86.6772 23.7688C85.9161 24.226 85.1757 24.4545 84.4557 24.4545C83.6741 24.4545 82.9953 24.1844 82.4194 23.6442C81.864 23.1039 81.5143 22.387 81.3704 21.4935C80.3625 22.5325 79.478 23.2909 78.7169 23.7688C77.9764 24.226 77.1537 24.4545 76.2486 24.4545ZM78.5626 22.5221C79.0152 22.5221 79.4471 22.4078 79.8585 22.1792C80.2905 21.9506 80.7738 21.5766 81.3086 21.0571L81.3395 14.7299L80.1053 15.1974C79.0563 15.5922 78.2541 15.9974 77.6987 16.413C77.1434 16.8078 76.7526 17.2545 76.5263 17.7532C76.3206 18.2519 76.2178 18.8234 76.2178 19.4675C76.2178 20.361 76.4337 21.0987 76.8657 21.6805C77.3182 22.2416 77.8839 22.5221 78.5626 22.5221Z" fill="#FAF9F6"/>
<path d="M87.4061 31C86.5628 31 85.7503 30.8338 84.9687 30.5013L86.172 26.8545C86.6862 27.0623 87.2416 27.239 87.8381 27.3844C88.4552 27.5299 89.0722 27.6026 89.6893 27.6026C90.4709 27.6026 91.2012 27.4364 91.8799 27.1039C92.5793 26.7922 93.1038 26.2 93.4535 25.3273L93.7929 24.4857L87.6838 10.1792C87.4781 9.68052 87.2107 9.28571 86.8816 8.9948C86.5319 8.68312 86.0588 8.51688 85.4623 8.4961V8.18442H94.3791V8.4961C93.8237 8.55844 93.3918 8.75584 93.0832 9.08831C92.7953 9.42078 92.6513 9.84675 92.6513 10.3662C92.6513 10.8234 92.7541 11.2909 92.9598 11.7688L96.0761 19.1558L99.1923 11.7688C99.398 11.2909 99.5008 10.8234 99.5008 10.3662C99.5008 9.84675 99.3466 9.42078 99.038 9.08831C98.7501 8.75584 98.3181 8.55844 97.7422 8.4961V8.18442H102V8.4961C101.527 8.6 101.126 8.91169 100.797 9.43117C100.468 9.92987 100.118 10.6156 99.7477 11.4883L93.4535 26.2623C92.7953 27.8 91.9417 28.974 90.8926 29.7844C89.8436 30.5948 88.6814 31 87.4061 31Z" fill="#FAF9F6"/>
<path d="M62.8 1.77867C62.8 1.77867 63.7742 1.41077 64.43 1.26091C65.1899 1.08728 65.6345 0.988112 66.4207 1.00114C67.1185 1.01271 67.5359 1.03425 68.1819 1.26091C69.0474 1.56459 69.432 1.94714 70.0414 2.55619C70.4568 2.97133 70.6348 3.24507 70.9466 3.72247C71.14 4.01855 71.3992 4.5 71.3992 4.5" stroke="#FAF9F6" stroke-width="1.5" stroke-linecap="round"/>
<path d="M79.9983 1.77867C79.9983 1.77867 79.0242 1.41077 78.3683 1.26091C77.6084 1.08728 77.1638 0.988112 76.3776 1.00114C75.6799 1.01271 75.2625 1.03425 74.6164 1.26091C73.7509 1.56459 73.3663 1.94714 72.7569 2.55619C72.3415 2.97133 72.1635 3.24507 71.8517 3.72247C71.6584 4.01855 71.3992 4.5 71.3992 4.5" stroke="#FAF9F6" stroke-width="1.5" stroke-linecap="round"/>
</svg>
