<svg width="213" height="76" viewBox="0 0 213 76" fill="none" xmlns="http://www.w3.org/2000/svg">
<path d="M8.5 54.0364V53.413H8.56171C10.0427 53.413 11.2357 52.9558 12.1408 52.0416C13.0458 51.1273 13.4983 49.9221 13.4983 48.426V27.9792C13.4983 26.4 13.1692 25.174 12.511 24.3013C11.8939 23.4286 10.5569 22.9922 8.5 22.9922V22.3688H14.6091C16.2957 22.3688 17.5916 22.2857 18.4966 22.1195C19.4428 21.9532 20.1422 21.7455 20.5947 21.4961C21.0472 21.2052 21.3763 20.9143 21.582 20.6234H22.1991L22.2608 28.7273C23.3304 26.5662 24.9554 24.8208 27.1357 23.4909C29.3161 22.161 31.6198 21.4961 34.047 21.4961C36.3919 21.4961 38.346 22.161 39.9092 23.4909C41.4725 24.8208 42.4804 26.6078 42.9329 28.8519C44.0848 26.6078 45.7303 24.8208 47.8695 23.4909C50.0498 22.161 52.3947 21.4961 54.9042 21.4961C57.6605 21.4961 59.8614 22.4104 61.5069 24.239C63.1936 26.0675 64.0369 28.4779 64.0369 31.4701V48.426C64.0369 49.9221 64.4894 51.1273 65.3945 52.0416C66.2995 52.9558 67.4925 53.413 68.9735 53.413H69.0352V54.0364H50.2144V53.413H50.2761C51.7571 53.413 52.9501 52.9558 53.8551 52.0416C54.7602 51.1273 55.2127 49.9221 55.2127 48.426V30.8468C55.2127 28.7688 54.8013 27.1065 53.9786 25.8597C53.1558 24.613 52.0862 23.9896 50.7698 23.9896C49.4945 23.9896 48.1575 24.5714 46.7588 25.7351C45.3601 26.8571 44.1465 28.3325 43.118 30.161C43.1591 30.2442 43.1797 30.3481 43.1797 30.4727C43.1797 30.5974 43.1797 30.7013 43.1797 30.7844V48.426C43.1797 49.9221 43.6322 51.1273 44.5373 52.0416C45.4423 52.9558 46.6353 53.413 48.1163 53.413H48.178V54.0364H29.3572V53.413H29.4189C30.8999 53.413 32.0929 52.9558 32.998 52.0416C33.903 51.1273 34.3555 49.9221 34.3555 48.426V30.8468C34.3555 28.7688 33.9441 27.1065 33.1214 25.8597C32.3397 24.613 31.2907 23.9896 29.9743 23.9896C28.699 23.9896 27.362 24.5506 25.9633 25.6727C24.6057 26.7532 23.4127 28.2286 22.3842 30.0987V48.426C22.3842 49.9221 22.8368 51.1273 23.7418 52.0416C24.6468 52.9558 25.8399 53.413 27.3208 53.413H27.3826V54.0364H8.5Z" fill="#1E1A14"/>
<path d="M91.8203 55.7818L91.7586 47.7403C90.689 49.8597 89.064 51.5844 86.8837 52.9143C84.7034 54.2442 82.3996 54.9091 79.9724 54.9091C77.2162 54.9091 74.9947 53.9948 73.308 52.1662C71.6625 50.3377 70.8397 47.9273 70.8397 44.9351V27.9792C70.8397 26.4 70.5312 25.174 69.9141 24.3013C69.297 23.4286 67.9394 22.9922 65.8414 22.9922V22.3688H72.0739C74.1719 22.3688 75.7763 22.1403 76.8871 21.6831C77.9155 21.226 78.6354 20.6649 79.0468 20H79.6639V45.5584C79.6639 47.6364 80.0753 49.2987 80.8981 50.5455C81.7208 51.7922 82.7904 52.4156 84.1069 52.4156C85.3821 52.4156 86.6986 51.8753 88.0562 50.7948C89.4137 49.6727 90.6067 48.1766 91.6352 46.3065V27.9792C91.6352 26.4831 91.265 25.2779 90.5245 24.3636C89.784 23.4493 88.5087 22.9922 86.6986 22.9922V22.3688H92.9311C95.0291 22.3688 96.6335 22.1403 97.7443 21.6831C98.8139 21.226 99.5544 20.6649 99.9657 20H100.583L100.521 48.426C100.521 49.9221 100.974 51.1481 101.879 52.1039C102.784 53.0182 103.977 53.4753 105.458 53.4753V54.0364H99.3487C98.2791 54.0364 97.3329 54.0571 96.5101 54.0987C95.6873 54.1818 95.0086 54.2649 94.4738 54.3481C93.363 54.5974 92.5814 55.0753 92.1289 55.7818H91.8203Z" fill="#1E1A14"/>
<path d="M104.798 54.0364V53.413H104.859C106.34 53.413 107.533 52.9558 108.438 52.0416C109.344 51.1273 109.796 49.9221 109.796 48.426V27.9792C109.796 26.4 109.467 25.174 108.809 24.3013C108.192 23.4286 106.855 22.9922 104.798 22.9922V22.3688H110.907C113.005 22.3688 114.609 22.1403 115.72 21.6831C116.748 21.226 117.468 20.6649 117.88 20H118.497L118.559 28.7273C119.628 26.5662 121.253 24.8208 123.433 23.4909C125.614 22.161 127.918 21.4961 130.345 21.4961C133.101 21.4961 135.302 22.4104 136.947 24.239C138.634 26.0675 139.477 28.4779 139.477 31.4701V48.426C139.477 49.9221 139.93 51.1273 140.835 52.0416C141.74 52.9558 142.933 53.413 144.414 53.413H144.476V54.0364H125.655V53.413H125.717C127.198 53.413 128.391 52.9558 129.296 52.0416C130.201 51.1273 130.653 49.9221 130.653 48.426V30.8468C130.653 28.7688 130.242 27.1065 129.419 25.8597C128.637 24.613 127.588 23.9896 126.272 23.9896C124.997 23.9896 123.66 24.5506 122.261 25.6727C120.903 26.7532 119.71 28.2286 118.682 30.0987V48.426C118.682 49.9221 119.134 51.1273 120.04 52.0416C120.945 52.9558 122.138 53.413 123.619 53.413H123.68V54.0364H104.798Z" fill="#1E1A14"/>
<path d="M152.997 54.9091C150.488 54.9091 148.472 54.2234 146.95 52.8519C145.428 51.4805 144.667 49.6727 144.667 47.4286C144.667 46.4727 144.831 45.5792 145.16 44.7481C145.489 43.8753 146.107 43.0234 147.012 42.1922C147.958 41.361 149.254 40.5091 150.899 39.6364C152.545 38.7221 154.725 37.7662 157.44 36.7688L163.179 34.6493V29.974C163.179 27.6052 162.809 25.7351 162.068 24.3636C161.328 22.9506 160.299 22.2442 158.983 22.2442C157.42 22.2857 156.083 23.3247 154.972 25.361C153.902 27.3974 153.182 30.2234 152.812 33.839L146.148 29.974C146.847 28.2701 147.917 26.774 149.356 25.4857C150.796 24.1974 152.442 23.2 154.293 22.4935C156.185 21.787 158.16 21.4338 160.217 21.4338C163.714 21.4338 166.552 22.4312 168.733 24.426C170.954 26.3792 172.065 29.0597 172.065 32.4675V47.4909C172.065 49.9013 172.867 51.1065 174.471 51.1065C175.418 51.1065 176.343 50.587 177.248 49.548L177.742 49.9844C176.672 51.439 175.377 52.6234 173.854 53.5377C172.332 54.452 170.851 54.9091 169.411 54.9091C167.848 54.9091 166.491 54.3688 165.339 53.2883C164.228 52.2078 163.529 50.774 163.241 48.987C161.225 51.0649 159.456 52.5818 157.934 53.5377C156.453 54.452 154.807 54.9091 152.997 54.9091ZM157.625 51.0442C158.53 51.0442 159.394 50.8156 160.217 50.3584C161.081 49.9013 162.048 49.1532 163.117 48.1143L163.179 35.4597L160.711 36.3948C158.613 37.1844 157.008 37.9948 155.897 38.826C154.787 39.6156 154.005 40.5091 153.553 41.5065C153.141 42.5039 152.936 43.6468 152.936 44.9351C152.936 46.7221 153.367 48.1974 154.231 49.361C155.136 50.4831 156.268 51.0442 157.625 51.0442Z" fill="#1E1A14"/>
<path d="M175.312 68C173.626 68 172.001 67.6675 170.437 67.0026L172.844 59.7091C173.872 60.1247 174.983 60.4779 176.176 60.7688C177.41 61.0597 178.644 61.2052 179.879 61.2052C181.442 61.2052 182.902 60.8727 184.26 60.2078C185.659 59.5844 186.708 58.4 187.407 56.6545L188.086 54.9714L175.868 26.3584C175.456 25.361 174.921 24.5714 174.263 23.9896C173.564 23.3662 172.618 23.0338 171.425 22.9922V22.3688H189.258V22.9922C188.147 23.1169 187.284 23.5117 186.666 24.1766C186.091 24.8416 185.803 25.6935 185.803 26.7325C185.803 27.6468 186.008 28.5818 186.42 29.5377L192.652 44.3117L198.885 29.5377C199.296 28.5818 199.502 27.6468 199.502 26.7325C199.502 25.6935 199.193 24.8416 198.576 24.1766C198 23.5117 197.136 23.1169 195.984 22.9922V22.3688H204.5V22.9922C203.554 23.2 202.752 23.8234 202.093 24.8623C201.435 25.8597 200.736 27.2312 199.995 28.9766L187.407 58.5247C186.091 61.6 184.383 63.9481 182.285 65.5688C180.187 67.1896 177.863 68 175.312 68Z" fill="#1E1A14"/>
<path d="M126.1 9.55733C126.1 9.55733 128.048 8.82155 129.36 8.52183C130.88 8.17456 131.769 7.97622 133.341 8.00229C134.737 8.02541 135.572 8.0685 136.864 8.52183C138.595 9.12918 139.364 9.89427 140.583 11.1124C141.414 11.9427 141.77 12.4901 142.393 13.4449C142.78 14.0371 143.298 15 143.298 15" stroke="#1E1A14" stroke-width="3" stroke-linecap="round"/>
<path d="M160.497 9.55733C160.497 9.55733 158.548 8.82155 157.237 8.52183C155.717 8.17456 154.828 7.97622 153.255 8.00229C151.86 8.02541 151.025 8.0685 149.733 8.52183C148.002 9.12918 147.233 9.89427 146.014 11.1124C145.183 11.9427 144.827 12.4901 144.203 13.4449C143.817 14.0371 143.298 15 143.298 15" stroke="#1E1A14" stroke-width="3" stroke-linecap="round"/>
</svg>
